<?xml version="1.0" encoding="utf-8"?>
<!-- Generator: Adobe Illustrator 16.0.0, SVG Export Plug-In . SVG Version: 6.00 Build 0)  -->
<!DOCTYPE svg PUBLIC "-//W3C//DTD SVG 1.1//EN" "http://www.w3.org/Graphics/SVG/1.1/DTD/svg11.dtd">
<svg version="1.1" id="Layer_1" xmlns="http://www.w3.org/2000/svg" xmlns:xlink="http://www.w3.org/1999/xlink" x="0px" y="0px"
	 width="70px" height="80px" viewBox="0 0 70 80" enable-background="new 0 0 70 80" xml:space="preserve">
<g>
	<path fill="#333333" d="M2.221,75.035c-0.004-0.039-0.01-0.08-0.014-0.119c-0.02-0.002-0.039-0.003-0.059-0.007
		C2.172,74.951,2.197,74.994,2.221,75.035z"/>
	<path fill="#333333" d="M7.834,23.854C7.867,24,7.9,24.145,7.945,24.289c-0.398-0.152-0.818-0.232-1.277-0.209
		c-0.33,0.018-0.531,0.352-0.372,0.648c0.028,0.051,0.055,0.102,0.082,0.152c0.007,0.018,0.015,0.036,0.021,0.055
		c-0.053,0.014-0.109,0.031-0.178,0.055c-0.219,0.075-0.369,0.294-0.301,0.529c0.059,0.199,0.091,0.401,0.129,0.604
		c-0.58,0.453-0.531,1.187-0.367,1.89c-0.982,0.511-1.229,2.181-1.414,3.106c-0.451,2.26-1.058,4.48-1.477,6.748
		c-0.487,2.627-0.912,5.257-0.796,7.936c0.098,2.276,0.675,4.473,1.085,6.701c-0.004,0-0.008-0.003-0.012-0.003
		c-0.18,0-0.352,0.26-0.198,0.456c0.027,0.035,0.056,0.072,0.085,0.107c0.107,0.154,0.205,0.312,0.299,0.473
		c0.016,0.109,0.035,0.218,0.051,0.327c0.014,0.108,0.025,0.22,0.039,0.328c-0.268,0.104-0.506,0.244-0.685,0.44
		c-0.284,0.313-0.364,0.781-0.409,1.185c-0.102,0.94-0.098,1.886-0.096,2.831c0.001,0.765-0.026,1.519-0.084,2.279
		c-0.037,0.532-0.092,1.189,0.147,1.688c0.129,0.269,0.321,0.5,0.548,0.708c-0.122,0.155-0.166,0.388-0.018,0.583
		C2.744,63.9,2.74,63.895,2.734,63.889c0.121,0.192,0.229,0.394,0.332,0.597c-0.15-0.007-0.302-0.015-0.457-0.01
		c-0.277,0.007-0.459,0.259-0.424,0.499c0.053,0.016,0.107,0.047,0.157,0.102c0.069,0.075,0.14,0.15,0.211,0.223
		c-0.005,0.005-0.011,0.01-0.015,0.016c-0.287,0.107-0.543,0.276-0.715,0.563c-0.541,0.911-0.541,1.989-0.615,3.016
		c-0.168,2.319-0.486,4.687,0.293,6.927c0.176,1.386,0.494,2.742,1.078,4.045c0.137,0.304,0.582,0.041,0.446-0.261
		c-0.04-0.091-0.081-0.181-0.121-0.271c-0.417-1.02-0.683-2.064-0.849-3.151c0.052-0.055,0.078-0.131,0.041-0.228
		c-0.04-0.101-0.074-0.201-0.107-0.301c-0.275-2.334-0.352-4.78-0.062-7.109c0.086-0.623,0.201-1.244,0.432-1.832
		c0.041-0.089,0.084-0.174,0.132-0.257c0.108,0.306,0.269,0.573,0.45,0.829c0,0.002,0,0.002-0.001,0.004
		c-0.003,0.006-0.005,0.012-0.007,0.018c-0.014,0.023-0.029,0.047-0.049,0.066c0.021,0.035,0.039,0.072,0.06,0.107
		c-0.026,0.066-0.032,0.144,0.007,0.216c0.094,0.178,0.201,0.345,0.31,0.511c0.003,0.045-0.001,0.09-0.017,0.131
		c0.014,0.088,0.043,0.178,0.08,0.269c0,0.017,0,0.034,0.004,0.053c0.033,0.17,0.08,0.325,0.135,0.479
		c-0.404,0.494-0.182,1.092,0.096,1.701c-0.057,0.088-0.084,0.199-0.061,0.326c0.004,0.022,0.008,0.045,0.013,0.068
		c-0.306,0.271-0.144,0.873,0.11,1.463c-0.066-0.043-0.134-0.086-0.199-0.133c-0.387-0.279-0.748,0.241-0.588,0.589
		c0.035,0.075,0.068,0.151,0.104,0.226c0.479,1.234,0.627,2.557,1.193,3.762c0.18,0.381,0.649,0.221,0.764-0.098
		c0.111-0.045,0.211-0.135,0.264-0.271c0.344-0.87,0.186-1.896-0.025-2.778c-0.083-0.352-0.243-0.672-0.418-0.987
		c-0.047-1.177-0.04-2.354-0.033-3.534c0.004-0.746-0.004-1.486-0.057-2.218c0.053-0.959-0.021-1.921-0.246-2.856
		C4.543,64.5,4.702,64.6,4.847,64.703c1.03,0.842,2.024,1.684,3.183,2.35c1.188,0.684,2.453,0.981,3.803,1.139
		c2.148,0.25,4.328,0.233,6.502,0.218c0.994-0.008,1.986-0.015,2.975,0.003c2.668,0.049,5.557-0.051,7.748-1.76
		c2.008-1.563,2.607-4.147,4.043-6.133c0.322-0.408,0.67-0.775,1.074-1.105c0.24-0.172,0.482-0.32,0.748-0.453
		c0.252-0.1,0.5-0.174,0.768-0.228c0.273-0.026,0.535-0.026,0.809-0.002c0.018,0.004,0.035,0.009,0.053,0.013
		c0.092,0.061,0.184,0.121,0.271,0.188c0.791,0.639,1.498,1.396,2.123,2.196c0.73,1.006,1.285,2.126,2.029,3.121
		c0.771,1.032,1.768,1.66,2.945,2.151c2.715,1.133,6.018,1.108,8.91,1.176c2.909,0.068,6.046-0.354,8.85-1.132
		c1.184-0.327,2.255-0.798,3.181-1.612c0.572-0.504,1.055-1.091,1.561-1.656c0.086,2.318,0.242,4.598,0.553,6.898
		c-0.025,0.21-0.047,0.421-0.057,0.635c-0.006,0.134,0.068,0.254,0.172,0.335c0.033,0.299,0.06,0.599,0.078,0.898
		c-0.027,0.243-0.049,0.487-0.068,0.733c-0.011,0.123,0.028,0.218,0.094,0.287c-0.004,0.225-0.018,0.449-0.035,0.674
		c-0.074,0.324-0.143,0.648-0.191,0.976c-0.026,0.093-0.049,0.187-0.082,0.278c-0.029,0.085-0.014,0.154,0.024,0.207
		c-0.017,0.209-0.023,0.418-0.017,0.63c0.017,0.471,0.738,0.604,0.846,0.114c0.178-0.812,0.287-1.625,0.348-2.441
		c0.104-0.451,0.203-0.904,0.261-1.367c0.011-0.081-0.006-0.151-0.038-0.21c0.039-0.099,0.078-0.195,0.115-0.294
		c0.084-0.191,0.176-0.364,0.291-0.542c0.104-0.16-0.03-0.4-0.223-0.39c-0.044,0.004-0.086,0-0.129,0
		c0.039-0.137-0.01-0.266-0.104-0.357c0.016-0.047,0.03-0.093,0.049-0.139c0.079-0.18,0.161-0.36,0.238-0.543
		c0.081-0.185-0.012-0.37-0.223-0.387c-0.036-0.004-0.073-0.007-0.109-0.01c-0.035-0.007-0.069-0.013-0.103-0.018
		c0.004-0.05,0.011-0.101,0.017-0.15c0.02-0.066,0.039-0.134,0.058-0.2c0.028-0.097,0.001-0.176-0.05-0.231
		c0.049-0.197,0.096-0.395,0.145-0.591c0.066-0.26-0.104-0.494-0.354-0.538c-0.084-1.015-0.171-2.029-0.232-3.043
		c0.049,0,0.098,0,0.148,0.004c0.1,0.02,0.191,0.047,0.286,0.082c0.062,0.03,0.119,0.064,0.175,0.103
		c0.111,0.091,0.207,0.187,0.301,0.297c0.124,0.179,0.225,0.364,0.316,0.562c0.215,0.542,0.335,1.107,0.418,1.684
		c0.148,1.213,0.146,2.438,0.019,3.652c-0.192,0.739-0.407,1.471-0.403,2.25c0,0.057,0.018,0.1,0.043,0.138
		c-0.163,1.048-0.291,2.098-0.232,3.169c0.018,0.332,0.534,0.332,0.516,0c-0.039-0.732-0.002-1.451,0.083-2.179
		c0.133-0.976,0.287-1.931,0.405-2.884c0.125-0.453,0.252-0.907,0.312-1.375c0.125-0.957,0.146-1.933,0.016-2.893
		c-0.041-0.297-0.102-0.584-0.173-0.864c-0.054-0.315-0.122-0.63-0.216-0.94c-0.165-0.545-0.49-0.959-0.889-1.301
		c-0.279-0.336-0.604-0.646-0.988-0.918c-0.02-0.014-0.037-0.021-0.056-0.029c0.104-0.355,0.218-0.707,0.362-1.05
		c0.039-0.091,0.021-0.166-0.024-0.219c0.28-0.198,0.54-0.413,0.753-0.716c0.381-0.543,0.313-1.356,0.256-1.973
		c-0.093-0.99-0.135-1.936-0.141-2.932c-0.006-1.109,0.165-3.926-1.189-4.494c0.01-0.1,0.016-0.199,0.028-0.299
		c0.351-2.275,1.272-4.408,1.571-6.695c0.349-2.669-0.707-5.137-1.12-7.725c-0.108-0.868-0.11-1.713-0.011-2.582
		c0.201-1.402,0.551-2.779,0.646-4.197c0.104-1.541-0.166-3.098-0.375-4.619c-0.109-0.922-0.027-1.936-0.342-2.807
		c-0.092-0.256-0.28-0.459-0.494-0.646c-0.098-0.225-0.201-0.449-0.316-0.672c-0.116-0.221-0.308-0.324-0.508-0.338
		c0.021-0.041,0.044-0.08,0.07-0.119c0.424-0.504,0.928-0.975,0.752-1.703c-0.199-0.824-0.771-1.447-1.373-2.021
		c-0.07-0.15-0.195-0.262-0.344-0.326c-0.011-0.01-0.021-0.02-0.031-0.031c-0.02-0.016-0.039-0.033-0.059-0.051
		c-0.058-0.148-0.163-0.285-0.293-0.344c-0.056-0.023-0.111-0.045-0.166-0.062c-0.879-0.738-1.883-1.359-2.963-1.73
		c-0.112-0.086-0.249-0.141-0.405-0.143c-0.005,0-0.011,0-0.017,0c-0.015,0-0.029,0.002-0.045,0.002
		c-0.255-0.066-0.513-0.125-0.774-0.162c0.011-0.01,0.022-0.02,0.034-0.029c0.211-0.182,0.142-0.547-0.088-0.676
		c-0.443-0.25-0.922-0.34-1.398-0.465c-0.096-0.191-0.291-0.332-0.593-0.34c-0.004,0-0.007,0-0.011,0
		c-0.049-0.029-0.1-0.053-0.15-0.08c0.695-0.184,0.64-1.352-0.174-1.352c-0.002,0-0.006,0-0.009,0
		c-0.218,0.002-0.436,0.014-0.653,0.021c-0.045-0.07-0.094-0.137-0.145-0.205c0.391-0.311,0.416-1.057-0.212-1.211
		c-0.681-0.17-1.354-0.381-2.025-0.588c-0.329-0.203-0.669-0.387-1.019-0.549c0.031-0.301-0.107-0.619-0.476-0.738
		c-0.732-0.232-1.453-0.334-2.16-0.334c-0.359,0-0.713,0.027-1.064,0.076c-0.174-0.338-0.344-0.678-0.6-0.949
		c-0.445-0.475-0.996-0.789-1.611-0.99c-0.35-0.115-0.709-0.158-1.076-0.158c-0.902,0-1.836,0.266-2.695,0.4
		c-0.141,0.018-0.281,0.027-0.42,0.035c-0.309-0.012-0.615-0.025-0.924-0.039c-0.102-0.023-0.201-0.049-0.301-0.078
		c-0.016-0.018-0.033-0.035-0.053-0.051c-1.504-1.18-3.904-3.309-6.043-3.311c-0.365,0-0.721,0.068-1.064,0.207
		c-1.641,0.576-2.699,2.361-3.678,3.795c-0.197-0.609-0.422-1.211-0.654-1.807c-0.016-0.088-0.031-0.174-0.045-0.262
		c-0.055-0.506-0.076-1.01-0.066-1.521c0.006-0.258-0.283-0.518-0.545-0.414c-0.361,0.141-0.691,0.324-1.004,0.531
		c0.229-0.383,0.467-0.762,0.736-1.119c0.205-0.248,0.422-0.475,0.666-0.688c0.223-0.162,0.449-0.297,0.699-0.412
		c0.197-0.068,0.391-0.117,0.598-0.158C33.527,0.732,33.33,0,32.848,0c-0.025,0-0.049,0.002-0.076,0.006
		c-2.83,0.422-5.004,2.641-6.914,4.598c-0.84,0.861-1.752,1.697-2.354,2.754c-0.23,0.406-0.375,0.844-0.459,1.293
		c-0.273-0.801-0.484-1.623-0.613-2.461c-0.072-0.566-0.098-1.131-0.041-1.701c0.045-0.295,0.115-0.578,0.223-0.859
		c0.061-0.131,0.131-0.254,0.207-0.373c0.42-0.277,0.861-0.514,1.326-0.717c0.148-0.061,0.299-0.117,0.449-0.17
		c0.426-0.152,0.398-0.9-0.115-0.844c-1.086,0.119-1.818,0.543-2.285,1.156c-1.115,0.812-2.004,1.881-2.721,3.166
		c-0.943,1.691-1.582,3.527-2.498,5.23C17.16,10,17.252,8.881,17.152,7.867c-0.023-0.221-0.219-0.443-0.439-0.443
		c-0.068,0-0.141,0.021-0.209,0.072c-0.357,0.26-0.699,0.562-1.02,0.9c-0.023-0.293-0.311-0.551-0.625-0.346
		c-2.422,1.588-3.611,4.748-4.77,7.27c-1.127,2.457-2.611,5.064-2.385,7.713c0.057-0.043,0.123-0.07,0.191-0.07
		c0.09,0,0.177,0.047,0.23,0.154 M2.779,66.096c0.01-0.006,0.02-0.01,0.029-0.016c0.006,0.01,0.012,0.02,0.02,0.029
		C2.812,66.102,2.797,66.1,2.779,66.096z M53.707,23.77c-0.039-0.029-0.08-0.057-0.121-0.082c0.008-0.008,0.018-0.012,0.025-0.02
		C53.645,23.701,53.674,23.736,53.707,23.77z M30.395,5.152c0,0.004,0.002,0.008,0.002,0.01c-0.002-0.002-0.004-0.004-0.004-0.008
		C30.393,5.154,30.393,5.152,30.395,5.152z M20.547,22.604c0.004,0,0.008,0.004,0.012,0.004c-0.006,0-0.012,0.002-0.018,0.002
		C20.543,22.607,20.545,22.607,20.547,22.604z M13.445,27.315c0.006,0,0.014,0,0.02-0.001c-0.018,0.022-0.037,0.043-0.055,0.065
		C13.422,27.358,13.432,27.337,13.445,27.315z M6.24,39.134c0.004-0.003,0.009-0.006,0.014-0.008
		c-0.006,0.016-0.012,0.03-0.018,0.045C6.236,39.159,6.238,39.146,6.24,39.134z M30.889,59.369
		c-0.115,0.692-0.305,1.354-0.566,2.006c-0.316,0.714-0.705,1.378-1.166,2.008c-0.525,0.666-1.111,1.259-1.773,1.789
		c-0.611,0.455-1.256,0.838-1.953,1.146c-0.629,0.25-1.266,0.428-1.934,0.529c-3.043,0.333-6.191,0.027-9.217-0.354
		c-1.398-0.195-2.77-0.486-4.08-1.019c-0.576-0.259-1.125-0.548-1.635-0.919c-0.221-0.186-0.42-0.383-0.609-0.603
		c-0.193-0.263-0.354-0.534-0.492-0.829c-0.18-0.457-0.293-0.922-0.371-1.406c-0.145-1.111-0.205-2.283-0.078-3.396
		c0.07-0.422,0.174-0.824,0.333-1.221c0.124-0.26,0.265-0.499,0.431-0.732c0.209-0.257,0.439-0.482,0.695-0.693
		c0.398-0.289,0.82-0.519,1.27-0.715c1.693-0.664,3.557-0.973,5.352-1.215c3.057-0.373,6.094-0.223,9.141,0.172
		c1.502,0.21,2.988,0.514,4.398,1.086c0.523,0.232,1.02,0.499,1.488,0.82c0.033,0.056,0.078,0.107,0.143,0.15
		c0.061,0.041,0.121,0.082,0.18,0.123c0.07,0.062,0.127,0.135,0.184,0.209c0.02,0.036,0.041,0.073,0.061,0.109
		c0.109,0.312,0.162,0.633,0.213,0.959C30.977,58.045,30.971,58.701,30.889,59.369z M13.084,52.563
		c0.236-0.147,0.477-0.284,0.73-0.4c0.352-0.142,0.703-0.251,1.07-0.324c-0.273,0.196-0.523,0.408-0.75,0.627
		C13.783,52.492,13.436,52.527,13.084,52.563z M20.334,50.883c0.295-0.113,0.59-0.21,0.891-0.286
		c-0.07,0.066-0.145,0.13-0.219,0.193c-0.41,0.302-0.844,0.544-1.309,0.749c-0.332,0.128-0.664,0.231-1.01,0.301
		c0.023-0.021,0.049-0.041,0.072-0.062C19.252,51.414,19.773,51.124,20.334,50.883z M19.373,50.51
		c0.305-0.082,0.613-0.15,0.926-0.203c-0.23,0.089-0.459,0.191-0.678,0.305c-0.033-0.045-0.078-0.076-0.135-0.086
		C19.449,50.52,19.412,50.514,19.373,50.51z M22.734,50.925c-0.045,0.038-0.092,0.075-0.139,0.112
		c-0.361,0.254-0.738,0.461-1.143,0.637c-0.408,0.154-0.816,0.271-1.248,0.339c-0.004,0.001-0.01,0.001-0.016,0.001
		c0.369-0.252,0.758-0.465,1.17-0.651C21.811,51.179,22.266,51.033,22.734,50.925z M21.953,50.576
		c0.031-0.041,0.059-0.084,0.086-0.127c0.143-0.01,0.283-0.016,0.426-0.014C22.293,50.477,22.123,50.523,21.953,50.576z
		 M19.211,52.329c-0.094,0-0.186,0.001-0.277,0.002c0.086-0.017,0.174-0.034,0.264-0.054C19.197,52.295,19.205,52.312,19.211,52.329
		z M17.955,51.441c-0.242,0.095-0.475,0.168-0.73,0.227c-0.072,0.008-0.141,0.014-0.209,0.018c0.094-0.093,0.191-0.18,0.297-0.264
		c0.139-0.098,0.281-0.188,0.426-0.27c0.186-0.047,0.371-0.088,0.561-0.121c0.146-0.019,0.289-0.031,0.434-0.037
		C18.482,51.162,18.229,51.309,17.955,51.441z M17.752,52.059c-0.035,0.106,0.012,0.217,0.1,0.281
		c-0.324,0.004-0.648,0.01-0.973,0.01c-0.289,0-0.578,0.012-0.867,0.021c0.117-0.071,0.234-0.146,0.35-0.227
		c0.039,0.026,0.088,0.044,0.139,0.05C16.938,52.232,17.355,52.18,17.752,52.059z M24.035,51.191
		c-0.074,0.046-0.15,0.09-0.227,0.132c-0.322,0.085-0.641,0.192-0.945,0.325c0.141-0.068,0.283-0.136,0.426-0.199
		C23.537,51.35,23.783,51.264,24.035,51.191z M23.586,50.793c0.004-0.008,0.01-0.014,0.016-0.02
		c0.021-0.002,0.041-0.004,0.062-0.006C23.637,50.775,23.611,50.784,23.586,50.793z M24.215,51.771
		c-0.092,0.033-0.184,0.062-0.275,0.092c0.027-0.016,0.055-0.03,0.082-0.047C24.086,51.801,24.15,51.787,24.215,51.771z
		 M25.061,51.117c0.031-0.023,0.061-0.048,0.092-0.072c0.082,0.004,0.162,0.009,0.246,0.016c-0.014,0.014-0.025,0.028-0.039,0.041
		C25.26,51.104,25.16,51.109,25.061,51.117z M26.168,52.1c0.146-0.086,0.291-0.178,0.43-0.274c0.162-0.019,0.324-0.032,0.484-0.043
		C26.779,51.892,26.475,52.002,26.168,52.1z M63.933,61.396c-0.068,0.45-0.169,0.883-0.327,1.311
		c-0.114,0.251-0.245,0.48-0.403,0.707c-0.201,0.238-0.414,0.45-0.65,0.652c-0.523,0.394-1.086,0.697-1.686,0.963
		c-1.23,0.506-2.51,0.916-3.824,1.121c-1.395,0.178-2.799,0.186-4.202,0.229c-1.355,0.042-2.682,0.061-4.029-0.111
		c-0.975-0.149-1.922-0.378-2.842-0.737c-0.611-0.268-1.174-0.592-1.711-0.99c-0.611-0.5-1.146-1.061-1.637-1.68
		c-0.648-0.873-1.182-1.809-1.625-2.801c-0.25-0.609-0.451-1.224-0.561-1.875c-0.039-0.355-0.045-0.699-0.008-1.055
		c0.033-0.168,0.072-0.33,0.123-0.49c-0.006-0.037-0.008-0.075-0.002-0.115c0.088-0.634,0.514-1.122,1.047-1.506
		c0.158-0.113,0.324-0.218,0.496-0.314c0.016-0.008,0.029-0.016,0.045-0.024c0.166-0.092,0.334-0.177,0.5-0.253
		c0.242-0.113,0.48-0.213,0.695-0.301c0.148-0.061,0.295-0.113,0.443-0.168c0.113-0.041,0.227-0.082,0.34-0.121
		c0.105-0.035,0.207-0.068,0.312-0.102c0.111-0.035,0.225-0.069,0.338-0.102c1.209-0.35,2.428-0.545,3.719-0.712
		c0.527-0.076,1.059-0.165,1.586-0.165c0.182,0,0.363,0.01,0.543,0.035c2.27-0.2,4.601-0.257,6.821,0.018
		c1.377,0.203,2.711,0.549,4.006,1.061c0.267,0.121,0.512,0.259,0.754,0.424c0.252,0.207,0.472,0.428,0.676,0.682
		c0.199,0.285,0.363,0.58,0.508,0.896c0.238,0.611,0.384,1.236,0.478,1.885C63.991,58.963,64.062,60.188,63.933,61.396z
		 M45.432,51.893c0.145-0.107,0.289-0.217,0.432-0.326c-0.096,0.102-0.186,0.2-0.271,0.3C45.539,51.875,45.484,51.883,45.432,51.893
		z M47.705,51.602c0.131-0.062,0.264-0.125,0.395-0.19c0.041,0.058,0.111,0.1,0.201,0.111c0.055,0.007,0.109,0.007,0.164,0.012
		C48.213,51.555,47.959,51.577,47.705,51.602z M49.826,50.828c-0.043,0.027-0.074,0.062-0.094,0.1
		c-0.172,0.039-0.344,0.07-0.52,0.096c-0.041,0.004-0.08,0.006-0.119,0.009c0.412-0.265,0.838-0.499,1.287-0.705
		c0.008-0.003,0.016-0.006,0.023-0.01c0.432-0.156,0.869-0.279,1.328-0.356c0.037-0.005,0.072-0.01,0.109-0.013
		C51.129,50.143,50.445,50.429,49.826,50.828z M50.352,51.424c-0.111,0.004-0.223,0.008-0.334,0.012
		c-0.055,0.003-0.107,0.007-0.162,0.01c0.1-0.021,0.199-0.039,0.297-0.063C50.219,51.399,50.285,51.41,50.352,51.424z
		 M52.826,51.354c0.291-0.057,0.584-0.122,0.873-0.189c0.959,0.095,1.921,0.077,2.886,0.052c-0.004,0.068,0.019,0.135,0.073,0.188
		c0.006,0.006,0.013,0.011,0.019,0.016c-0.977-0.056-1.955-0.079-2.935-0.079C53.436,51.342,53.131,51.35,52.826,51.354z
		 M63.239,52.244c-1.258-0.18-2.504-0.392-3.758-0.558c-0.041-0.038-0.095-0.067-0.166-0.071c-0.361-0.021-0.721-0.04-1.08-0.079
		c-0.279-0.044-0.542-0.105-0.809-0.205c-0.072-0.033-0.141-0.071-0.205-0.115c0.008-0.005,0.016-0.011,0.025-0.015
		c0.256-0.006,0.514-0.012,0.771-0.013c0.344-0.003,0.319-0.475,0-0.518c-0.302-0.04-0.573-0.055-0.817,0.015
		c-0.288,0.007-0.575,0.016-0.863,0.021c0.193-0.116,0.148-0.475-0.132-0.48c-1.122-0.02-2.264-0.115-3.322,0.331
		c-0.102,0.042-0.172,0.153-0.182,0.261c-0.24,0.047-0.48,0.09-0.721,0.125c-0.193,0.021-0.383,0.037-0.572,0.043
		c0.943-0.34,1.879-0.734,2.849-0.871c0.292-0.041,0.219-0.518-0.068-0.507c-0.595,0.021-1.196,0.085-1.786,0.206
		c0.104-0.151,0.037-0.404-0.203-0.408c-0.824-0.012-1.617,0.23-2.359,0.594c-1.008,0.421-1.969,0.982-2.977,1.431
		c-0.053,0.021-0.105,0.042-0.158,0.062c0.115-0.101,0.234-0.199,0.355-0.296c0.717-0.549,1.479-1.02,2.307-1.38
		c0.369-0.143,0.734-0.256,1.125-0.32c0.062-0.006,0.125-0.009,0.186-0.013c0.104-0.001,0.207-0.001,0.311,0.002
		c0.334,0.008,0.33-0.5,0-0.516c-0.061-0.004-0.119-0.006-0.18-0.006c-0.051,0-0.102,0.002-0.152,0.004
		c-0.543,0.01-1.098,0.074-1.648,0.193c-0.875-0.07-1.734,0.371-2.531,0.951c-0.82,0.461-1.555,1.053-2.125,1.758
		c-0.031,0.039-0.051,0.08-0.061,0.119c-0.098,0.059-0.197,0.111-0.297,0.165c-0.027,0.006-0.053,0.011-0.08,0.017
		c0.557-0.456,1.072-0.951,1.496-1.556c0.174-0.247-0.201-0.513-0.404-0.313c-0.572,0.559-1.102,1.154-1.725,1.658
		c-0.232,0.166-0.463,0.307-0.723,0.423c-0.064,0.02-0.129,0.04-0.193,0.06c-0.076,0.023-0.125,0.07-0.152,0.127
		c-0.945,0.238-1.891,0.482-2.852,0.657c-0.617,0.112-1.234,0.2-1.852,0.3c-0.092-0.085-0.219-0.135-0.371-0.114
		c-0.064,0.01-0.131,0.019-0.197,0.028c-2.475,0.297-5.084,0.231-7.598-0.018c-0.047-0.019-0.096-0.035-0.143-0.055
		c-0.035-0.015-0.066-0.021-0.096-0.021c-0.045,0-0.08,0.018-0.113,0.042c-0.355-0.038-0.711-0.079-1.064-0.124
		c-0.24-0.033-0.479-0.072-0.719-0.112c1.033-0.026,2.043-0.214,2.988-0.739c0.227-0.125,0.125-0.484-0.129-0.481
		c-0.826,0.008-1.643,0.099-2.459,0.207c0.344-0.119,0.688-0.23,1.041-0.321c0.232-0.059,0.262-0.459,0-0.497
		c-0.566-0.083-1.164-0.104-1.768-0.065c-0.029-0.029-0.07-0.052-0.125-0.061c-0.252-0.043-0.51-0.071-0.768-0.086
		c0.016-0.032,0.033-0.064,0.049-0.098c0.066-0.145,0.02-0.339-0.154-0.379c-0.104-0.024-0.205-0.043-0.307-0.058
		c0.002-0.116-0.068-0.237-0.189-0.258c-0.52-0.089-1.059-0.115-1.598-0.082c-0.033-0.053-0.086-0.096-0.148-0.117
		c-0.449-0.157-0.926-0.223-1.412-0.213c-0.029-0.095-0.113-0.163-0.24-0.179c-0.234-0.029-0.488-0.043-0.756-0.043
		c-1.201,0-2.645,0.301-3.723,0.949c-0.58,0.139-1.158,0.359-1.693,0.637c-1.223-0.225-2.83,0.455-3.697,1.402
		c-2.199,0.27-4.383,0.674-6.559,1.1c-0.057,0.012-0.115,0.021-0.176,0.031c0.033-0.098,0.062-0.195,0.094-0.293
		c0.227-0.396,0.467-0.784,0.742-1.154c0.175-0.221,0.354-0.434,0.542-0.643c0.227-0.253-0.108-0.57-0.366-0.365
		c-0.08,0.064-0.16,0.133-0.236,0.203c-0.02-0.029-0.045-0.055-0.073-0.074c0.008-0.016,0.015-0.031,0.022-0.046
		c0.121-0.198,0.244-0.397,0.365-0.597c0.053-0.086,0.049-0.169,0.014-0.234c0.008-0.102-0.039-0.199-0.111-0.254
		c0.061-0.137,0.121-0.271,0.184-0.404c0.029-0.064,0.031-0.137,0.012-0.201c0.166-0.266,0.338-0.527,0.521-0.784
		c0.117-0.167-0.012-0.332-0.172-0.368c0.004-0.072-0.023-0.131-0.068-0.175c0.154-0.196,0.307-0.393,0.459-0.591
		c0.045-0.06,0.092-0.118,0.139-0.178c0.197-0.256-0.133-0.615-0.365-0.365c-0.081,0.086-0.163,0.178-0.244,0.268
		c-0.033-0.023-0.072-0.041-0.111-0.048c0.134-0.288,0.266-0.575,0.396-0.859c0.066-0.143,0-0.29-0.109-0.356
		c0.121-0.176,0.236-0.355,0.334-0.55c0.118-0.233-0.156-0.499-0.361-0.352c0.002-0.016,0.003-0.032,0.006-0.048
		c0.113-0.343,0.215-0.689,0.301-1.043c0.035-0.144-0.035-0.246-0.133-0.292c0.043-0.212,0.094-0.419,0.156-0.626
		c0.024-0.073,0.048-0.146,0.07-0.221c0.045-0.149-0.039-0.254-0.15-0.295c0.008-0.021,0.016-0.043,0.023-0.064
		c0.928-2.578,1.652-5.254,2.703-7.785c0.461-1.066,1.023-2.063,1.723-2.993c0.971-1.225,2.096-2.317,3.078-3.536
		c0.98-1.22,1.965-2.444,3.189-3.429c0.469-0.349,0.955-0.646,1.488-0.882c0.061-0.023,0.119-0.047,0.18-0.068
		c0.24-0.094,0.316-0.324,0.279-0.523c1.543-0.23,3.084-0.484,4.623-0.75c1.559,0.129,3.203-0.127,4.555-0.787
		c0.83-0.139,1.656-0.291,2.455-0.535c1.271-0.389,2.453-0.977,3.773-1.186c0.678-0.064,1.338-0.049,2.016,0.027
		c1.682,0.236,3.348,0.553,5.033,0.773c-0.002,0-0.004,0-0.006,0c2.883,0.391,5.74,0.918,8.443,2.027
		c1.07,0.465,2.068,1.043,3,1.743c0.915,0.723,1.723,1.542,2.468,2.429c0.447,0.858,0.846,1.744,1.248,2.629
		c0.177,0.386,0.539,0.425,0.831,0.274c1.272,2.011,2.354,4.132,3.399,6.279c0.104,0.21,0.399,0.268,0.59,0.155
		c0.052-0.032,0.104-0.062,0.154-0.093c0.043-0.015,0.085-0.029,0.127-0.043c0.225,0.599,0.527,1.159,0.834,1.72
		c-0.174-0.043-0.395,0.107-0.322,0.314c0.152,0.44,0.334,0.867,0.533,1.284c0.047,0.146,0.09,0.294,0.132,0.442
		c-0.087,0.055-0.144,0.162-0.118,0.285c0.039,0.193,0.088,0.383,0.144,0.569c-0.194-0.106-0.474,0.153-0.337,0.37
		c0.228,0.363,0.441,0.731,0.643,1.106c-0.152-0.004-0.314,0.124-0.275,0.323c0.053,0.261,0.125,0.514,0.21,0.763
		c0.283,0.988,0.624,1.979,1.111,2.882c0.006,0.122,0.013,0.244,0.018,0.367c-0.06,0.061-0.095,0.146-0.076,0.24
		c0.02,0.101,0.062,0.296,0.124,0.526c0.02,0.218,0.046,0.434,0.079,0.647c-0.157-0.081-0.403,0.021-0.386,0.225
		c0.049,0.533,0.205,1.024,0.404,1.501c-0.121,0.042-0.208,0.187-0.18,0.321c0.146,0.684,0.408,1.326,0.66,1.974
		C64.954,52.435,64.093,52.356,63.239,52.244z"/>
	<path fill="#333333" d="M7.607,23.422c0.072,0.146,0.152,0.287,0.227,0.432c-0.062-0.273-0.105-0.547-0.129-0.82
		C7.596,23.115,7.527,23.264,7.607,23.422z"/>
</g>
</svg>
