<?xml version="1.0" encoding="utf-8"?>
<!-- Generator: Adobe Illustrator 16.0.0, SVG Export Plug-In . SVG Version: 6.00 Build 0)  -->
<!DOCTYPE svg PUBLIC "-//W3C//DTD SVG 1.1//EN" "http://www.w3.org/Graphics/SVG/1.1/DTD/svg11.dtd">
<svg version="1.1" id="Layer_1" xmlns="http://www.w3.org/2000/svg" xmlns:xlink="http://www.w3.org/1999/xlink" x="0px" y="0px"
	 width="24px" height="24px" viewBox="0 0 24 24" enable-background="new 0 0 24 24" xml:space="preserve">
<path fill="#FFFFFF" d="M24,23.25c0,0.413-0.338,0.75-0.75,0.75H0.75C0.337,24,0,23.663,0,23.25v-4.5C0,18.337,0.337,18,0.75,18
	h22.5c0.412,0,0.75,0.337,0.75,0.75V23.25z M24,9.75C24,9.337,23.662,9,23.25,9H0.75C0.337,9,0,9.337,0,9.75v4.5
	C0,14.663,0.337,15,0.75,15h22.5c0.412,0,0.75-0.337,0.75-0.75V9.75z M24,0.75C24,0.337,23.662,0,23.25,0H0.75
	C0.337,0,0,0.337,0,0.75v4.5C0,5.663,0.337,6,0.75,6h22.5C23.662,6,24,5.663,24,5.25V0.75z"/>
</svg>
